<svg width="20" height="20" viewBox="0 0 20 20" fill="none" xmlns="http://www.w3.org/2000/svg">
<path d="M14.5057 13.6735C13.5862 14.4082 12.2989 14.9592 11.0115 14.9592C8.06897 14.9592 6.04598 12.7551 6.04598 9.81632C6.04598 6.87755 8.06897 4.85714 11.0115 4.85714C12.2989 4.85714 13.5862 5.22449 14.5057 6.14285L15.0575 6.69388L18 3.93877L17.2644 3.38775C15.6092 1.91836 13.4023 1 11.0115 1C5.86207 1 2 4.85714 2 10C2 15.1429 5.86207 19 11.0115 19C13.4023 19 15.6092 18.0816 17.2644 16.6122L18 16.0612L15.0575 13.1224L14.5057 13.6735Z" fill="black"/>
<path d="M10.8285 12.9391C12.4537 12.9391 13.7711 11.6234 13.7711 10.0003C13.7711 8.37727 12.4537 7.06153 10.8285 7.06153C9.20343 7.06153 7.88601 8.37727 7.88601 10.0003C7.88601 11.6234 9.20343 12.9391 10.8285 12.9391Z" fill="black"/>
</svg>
