<svg width="17" height="19" viewBox="0 0 17 19" fill="none" xmlns="http://www.w3.org/2000/svg">
<path d="M12.6752 12.8616C11.7432 13.6072 10.4384 14.1664 9.13363 14.1664C6.15122 14.1664 4.10081 11.9296 4.10081 8.94722C4.10081 5.96481 6.15122 3.91441 9.13363 3.91441C10.4384 3.91441 11.7432 4.28721 12.6752 5.21921L13.2344 5.77841L16.2168 2.9824L15.4712 2.4232C13.7936 0.931999 11.5568 0 9.13363 0C3.91441 0 0 3.91441 0 9.13362C0 14.3528 3.91441 18.2672 9.13363 18.2672C11.5568 18.2672 13.7936 17.3352 15.4712 15.844L16.2168 15.2848L13.2344 12.3024L12.6752 12.8616Z" fill="black"/>
<path d="M8.94819 12.1163C10.5953 12.1163 11.9306 10.7811 11.9306 9.13394C11.9306 7.4868 10.5953 6.15153 8.94819 6.15153C7.30105 6.15153 5.96578 7.4868 5.96578 9.13394C5.96578 10.7811 7.30105 12.1163 8.94819 12.1163Z" fill="black"/>
</svg>
