<svg width="20" height="20" viewBox="0 0 20 20" fill="none" xmlns="http://www.w3.org/2000/svg">
<path d="M17.3636 5.90909C17.3636 4.10161 15.8984 2.63636 14.0909 2.63636H5.90909C4.10161 2.63636 2.63636 4.10161 2.63636 5.90909V14.0909C2.63636 15.8984 4.10161 17.3636 5.90909 17.3636H14.0909C15.8984 17.3636 17.3636 15.8984 17.3636 14.0909V5.90909ZM8.1511 6.33336C8.91479 5.9371 9.78413 5.79173 10.6352 5.91788C11.5034 6.04663 12.3077 6.45101 12.9284 7.07164C13.549 7.69228 13.9534 8.49658 14.0821 9.36479C14.2083 10.2159 14.0629 11.0852 13.6666 11.8489C13.2703 12.6126 12.643 13.2319 11.8745 13.6187C11.1059 14.0055 10.235 14.1405 9.38556 14.0038C8.53602 13.8671 7.7512 13.4657 7.14276 12.8572C6.53431 12.2488 6.13288 11.464 5.99618 10.6144C5.85952 9.76498 5.99451 8.89407 6.3813 8.12553C6.76815 7.35696 7.38737 6.72967 8.1511 6.33336ZM10.3955 7.53667C9.88481 7.46094 9.36283 7.54817 8.90456 7.78596C8.44644 8.02375 8.07475 8.40036 7.84268 8.86142C7.61071 9.32249 7.52977 9.84517 7.61177 10.3548C7.69382 10.8644 7.93469 11.3353 8.29972 11.7003C8.66474 12.0653 9.13558 12.3062 9.64524 12.3882C10.1548 12.4702 10.6775 12.3893 11.1386 12.1573C11.5996 11.9253 11.9763 11.5536 12.214 11.0954C12.4518 10.6372 12.5391 10.1152 12.4633 9.60449C12.3861 9.08359 12.1438 8.60097 11.7714 8.2286C11.399 7.85624 10.9164 7.61393 10.3955 7.53667ZM14.508 4.68182C14.9599 4.68182 15.3262 5.04813 15.3262 5.5C15.3262 5.95187 14.9599 6.31818 14.508 6.31818H14.5C14.0481 6.31818 13.6818 5.95187 13.6818 5.5C13.6818 5.04813 14.0481 4.68182 14.5 4.68182H14.508ZM19 14.0909C19 16.8021 16.8021 19 14.0909 19H5.90909C3.19787 19 1 16.8021 1 14.0909V5.90909C1 3.19788 3.19787 1 5.90909 1H14.0909C16.8021 1 19 3.19787 19 5.90909V14.0909Z" fill="black"/>
</svg>
