<svg width="19" height="18" viewBox="0 0 19 18" fill="none" xmlns="http://www.w3.org/2000/svg">
<path d="M16.6847 4.71098C16.6847 2.97644 15.1907 1.57033 13.3478 1.57033H5.00541C3.16247 1.57033 1.66847 2.97644 1.66847 4.71098V12.5626C1.66847 14.2971 3.16247 15.7033 5.00541 15.7033H13.3478C15.1907 15.7033 16.6847 14.2971 16.6847 12.5626V4.71098ZM7.29141 5.11813C8.07009 4.73785 8.95649 4.59835 9.82426 4.71941C10.7095 4.84296 11.5296 5.23102 12.1624 5.82661C12.7952 6.4222 13.2075 7.19404 13.3388 8.02722C13.4674 8.84395 13.3192 9.6782 12.9152 10.4111C12.5111 11.144 11.8715 11.7382 11.0878 12.1094C10.3042 12.4806 9.41622 12.6102 8.5501 12.479C7.68389 12.3478 6.88366 11.9626 6.26328 11.3787C5.6429 10.7948 5.2336 10.0417 5.09421 9.22643C4.95487 8.41125 5.09251 7.57549 5.48689 6.83797C5.88132 6.10042 6.5127 5.49844 7.29141 5.11813ZM9.57986 6.27287C9.05914 6.20019 8.52691 6.28391 8.05966 6.5121C7.59254 6.74029 7.21356 7.1017 6.97694 7.54416C6.74042 7.98662 6.65789 8.48821 6.7415 8.97723C6.82516 9.46632 7.07075 9.91816 7.44294 10.2685C7.81513 10.6188 8.29521 10.8499 8.81487 10.9286C9.33445 11.0073 9.8674 10.9297 10.3375 10.707C10.8076 10.4843 11.1916 10.1277 11.4341 9.68802C11.6765 9.24825 11.7655 8.74733 11.6883 8.25724C11.6095 7.75736 11.3624 7.29422 10.9827 6.93688C10.6031 6.57955 10.111 6.34701 9.57986 6.27287ZM13.773 3.53323C14.2338 3.53323 14.6073 3.88476 14.6073 4.31839C14.6073 4.75203 14.2338 5.10356 13.773 5.10356H13.7649C13.3041 5.10356 12.9306 4.75203 12.9306 4.31839C12.9306 3.88476 13.3041 3.53323 13.7649 3.53323H13.773ZM18.3532 12.5626C18.3532 15.1644 16.1122 17.2736 13.3478 17.2736H5.00541C2.241 17.2736 0 15.1644 0 12.5626V4.71098C0 2.10918 2.241 0 5.00541 0H13.3478C16.1122 0 18.3532 2.10918 18.3532 4.71098V12.5626Z" fill="black"/>
</svg>
