<svg width="37" height="31" viewBox="0 0 37 31" fill="none" xmlns="http://www.w3.org/2000/svg">
<path d="M8.76316 11.8339V8.5405H0V11.8339H2.01048V18.8787H0V22.1721H8.76316V18.8787H6.75269V11.8339H8.76316Z" fill="black"/>
<path d="M17.9843 13.746C17.4202 13.5962 14.5174 12.8378 14.0149 12.688C13.5123 12.5382 13.102 12.3229 13.102 12.0514C13.102 11.7799 13.5635 11.4896 14.4969 11.4896C17.4407 11.4896 18.8549 13.1468 18.8549 13.1468C18.8549 13.1468 19.0142 13.3405 19.0676 13.41H21.9078V8.88893H18.8588V9.71147C18.6259 9.56467 16.9067 8.5405 14.2405 8.5405C10.7223 8.5405 8.76326 10.207 8.76326 12.6974C8.76326 15.1878 11.2352 16.2176 11.9224 16.4798C12.6096 16.7419 15.297 17.4347 16.4458 17.7624C17.5946 18.0901 18.0151 18.3242 18.0151 18.4927C18.0151 18.6612 17.5125 19.1012 16.0765 19.1012C13.5752 19.1012 12.2871 17.7549 12.061 17.4941V17.4921C11.9891 17.4042 11.9048 17.3001 11.8761 17.261C11.843 17.2157 11.7661 17.1151 11.7128 17.0456H8.87264V21.8736H12.061V20.8654C12.432 21.0908 14.331 22.1721 16.6099 22.1721C19.1536 22.1721 22.3948 21.161 22.3948 18.0058C22.3948 14.8507 18.5485 13.8958 17.9843 13.746Z" fill="black"/>
<path d="M29.6974 8.5405C25.6853 8.5405 22.3947 10.4709 22.3947 15.3986C22.3947 20.3263 25.9669 22.1721 29.7149 22.1721C33.463 22.1721 37 20.3432 37 15.4495C37 10.5558 33.4632 8.5405 29.6974 8.5405ZM29.7326 18.887C28.36 18.887 27.4802 18.5821 27.4802 15.3817C27.4802 12.1813 28.1313 11.8426 29.7854 11.8426C30.7884 11.8426 32.0026 11.9103 32.0026 15.2801C32.0026 18.65 31.1053 18.887 29.7326 18.887Z" fill="black"/>
<path d="M5.56255 7.04716C6.46133 5.72 7.5666 4.54355 8.83364 3.56656C9.34597 3.94535 9.89056 4.28894 10.4631 4.59516C9.50388 5.66437 8.64448 6.84895 8.50212 7.04716H9.07766C9.42311 6.58156 10.1377 5.64495 10.8912 4.81457C11.7147 5.21943 12.59 5.55057 13.5032 5.80278C13.2601 6.31851 13.0764 6.76949 12.9685 7.04716H13.4686C13.5835 6.76121 13.7518 6.36238 13.9619 5.9217C15.1269 6.20633 16.3476 6.36586 17.5963 6.39016V7.04724H18.0606V6.3924C19.3002 6.38335 20.5142 6.24208 21.6751 5.97663C21.873 6.39526 22.0323 6.7732 22.1424 7.04716H22.6424C22.5387 6.78048 22.3653 6.35418 22.1362 5.86375C23.0658 5.6219 23.9577 5.29943 24.7978 4.90091C25.5224 5.70925 26.1998 6.59773 26.5334 7.04716H27.1088C26.9709 6.85506 26.156 5.73145 25.23 4.68707C25.8666 4.35803 26.4702 3.98365 27.0345 3.56656C28.3015 4.54355 29.4069 5.72 30.3056 7.04716H30.8639C28.1183 2.80967 23.3483 0 17.934 0C12.5197 0 7.74965 2.80967 5.00404 7.04716H5.56255ZM13.7103 5.37827C12.8417 5.14361 12.0082 4.836 11.2224 4.45969C11.3292 4.34874 11.4359 4.24128 11.5413 4.13954C12.6173 3.10197 14.387 1.96265 14.7749 1.7174C15.0897 1.89032 15.4332 2.03654 15.7986 2.15259C15.5149 2.52473 14.9577 3.28014 14.3509 4.23834C14.1147 4.61125 13.8995 5.00319 13.7103 5.37827ZM17.5963 5.9258C16.4207 5.90228 15.2711 5.7559 14.1724 5.49533C14.3442 5.1594 14.5359 4.81372 14.743 4.48676C15.4421 3.38296 16.0728 2.55421 16.283 2.28458C16.7022 2.38307 17.1428 2.44535 17.5963 2.4657V5.9258ZM18.0606 5.92812V2.47096C18.508 2.46338 18.9457 2.41603 19.3647 2.33177C19.6048 2.6424 20.2058 3.44114 20.868 4.48676C21.0858 4.83082 21.2868 5.19553 21.4654 5.54794C20.3705 5.7901 19.2276 5.91945 18.0606 5.92812ZM21.9308 5.438C21.7345 5.04497 21.5088 4.63106 21.2601 4.23834C20.6846 3.32958 20.1536 2.6031 19.8583 2.21302C20.2469 2.10385 20.6138 1.96196 20.9506 1.79028C21.4952 2.13936 23.0769 3.18227 24.0696 4.13954C24.2014 4.26665 24.3349 4.40243 24.4683 4.54324C23.6661 4.9136 22.8159 5.2134 21.9308 5.438ZM26.6458 3.27635C26.1012 3.66946 25.5193 4.02163 24.9066 4.33126C24.7354 4.14759 24.5627 3.97018 24.3918 3.80539C23.4633 2.91002 22.0809 1.9707 21.4035 1.52963C21.6336 1.38047 21.844 1.21552 22.0317 1.03595C23.7083 1.51501 25.2648 2.28102 26.6458 3.27635ZM17.9341 0.464204C19.1599 0.464204 20.3513 0.613755 21.4921 0.89367C20.6264 1.59686 19.3291 2.00939 17.9341 2.00939C16.5328 2.00939 15.2391 1.59818 14.3745 0.894057C15.5157 0.61391 16.7076 0.464204 17.9341 0.464204ZM13.8364 1.03595C13.9891 1.18233 14.1563 1.31927 14.3374 1.44553C13.7237 1.84041 12.2122 2.84781 11.2192 3.80531C11.0762 3.94318 10.9321 4.09002 10.7885 4.24182C10.2393 3.95425 9.71548 3.63217 9.22257 3.27635C10.6033 2.28102 12.1597 1.51508 13.8364 1.03595Z" fill="black"/>
<path d="M30.306 23.746C29.4263 25.0452 28.3486 26.1998 27.1151 27.1644C26.5276 26.7227 25.8971 26.3278 25.2303 25.9829C26.0336 25.0768 26.7533 24.1111 27.0198 23.746H26.4417C26.0853 24.2218 25.4615 25.029 24.798 25.7692C23.958 25.3705 23.0661 25.0478 22.1363 24.806C22.3329 24.3851 22.4882 24.012 22.5939 23.746H22.0924C21.9861 24.0054 21.8447 24.3344 21.6749 24.6936C20.5147 24.4286 19.3009 24.2874 18.0602 24.2784V23.746H17.596V24.2805C16.3462 24.3047 15.1256 24.4641 13.9613 24.7483C13.78 24.3679 13.6296 24.0184 13.518 23.746H13.0164C13.1271 24.0249 13.2924 24.4213 13.5025 24.8671C12.5891 25.1194 11.7135 25.4501 10.89 25.8551C10.198 25.0924 9.53908 24.2403 9.16872 23.746H8.59063C8.86591 24.1231 9.6262 25.143 10.4627 26.0753C9.86023 26.3979 9.28818 26.7614 8.75241 27.1644C7.51886 26.1997 6.44114 25.0451 5.56155 23.7459H5.00404C7.74973 27.9834 12.5196 30.793 17.9338 30.793C23.348 30.793 28.1179 27.9834 30.8636 23.7459L30.306 23.746ZM21.9306 25.232C22.816 25.4565 23.6663 25.7563 24.4685 26.1268C24.3349 26.2677 24.2013 26.4038 24.0693 26.5311C23.0797 27.4853 21.503 28.5258 20.9543 28.8777C20.6175 28.7053 20.2501 28.5634 19.8603 28.4542C20.1561 28.0634 20.6858 27.3384 21.2597 26.4322C21.5086 26.0394 21.7343 25.6252 21.9306 25.232ZM18.0602 24.7425C19.2282 24.7512 20.3711 24.8802 21.4653 25.122C21.2865 25.4747 21.0856 25.8394 20.8675 26.1838C20.2063 27.228 19.6062 28.0258 19.3654 28.3374C18.9476 28.2542 18.5098 28.2072 18.0601 28.1998L18.0602 24.7425ZM17.596 24.7448V28.2046C17.1407 28.2248 16.6997 28.2863 16.2809 28.3841C16.0693 28.1124 15.4407 27.286 14.7427 26.1838C14.5354 25.8566 14.3435 25.5107 14.1716 25.1745C15.2698 24.9142 16.4193 24.7683 17.596 24.7448ZM13.7097 25.2919C13.899 25.6672 14.1143 26.0592 14.3505 26.4322C14.9568 27.3897 15.5136 28.1446 15.7976 28.517C15.4317 28.633 15.0886 28.7794 14.7739 28.9528C14.3845 28.7064 12.6164 27.568 11.541 26.5311C11.4354 26.4293 11.3287 26.3217 11.2218 26.2106C12.0074 25.8342 12.8408 25.5265 13.7097 25.2919ZM9.13808 27.4554C9.65544 27.0751 10.2071 26.7322 10.7874 26.4282C10.9312 26.5802 11.0756 26.7272 11.2187 26.8653C12.2115 27.8225 13.7226 28.8297 14.3365 29.2247C14.1178 29.3778 13.9184 29.5462 13.7412 29.7289C12.0668 29.2383 10.5137 28.4615 9.13808 27.4554ZM17.9337 30.3289C16.6678 30.3289 15.4383 30.1699 14.2637 29.872C15.1214 29.1183 16.4833 28.6613 17.9337 28.6613C19.3824 28.6613 20.7457 29.1186 21.6034 29.8721C20.4289 30.17 19.1996 30.3289 17.9337 30.3289ZM22.126 29.7289C21.9154 29.5119 21.6747 29.314 21.4062 29.1389C22.0847 28.6971 23.4644 27.7592 24.3914 26.8652C24.5624 26.7003 24.7351 26.5228 24.9065 26.339C25.5504 26.6647 26.1607 27.0373 26.7293 27.4553C25.3537 28.4616 23.8004 29.2383 22.126 29.7289Z" fill="black"/>
</svg>
