<svg width="19" height="18" viewBox="0 0 19 18" fill="none" xmlns="http://www.w3.org/2000/svg">
<path d="M4.28271 5.88872C4.75576 5.88872 5.13925 6.26536 5.13925 6.72997V16.8249C5.13925 17.2895 4.75576 17.6662 4.28271 17.6662H0.856541C0.383486 17.6662 0 17.2895 0 16.8249V6.72997C0 6.26536 0.383486 5.88872 0.856541 5.88872H4.28271ZM17.1308 10.9362C17.1308 9.82063 16.6793 8.75108 15.8761 7.96226C15.073 7.17344 13.984 6.72997 12.8481 6.72997C11.7123 6.72997 10.6233 7.17344 9.82011 7.96226C9.01695 8.75108 8.56541 9.82063 8.56541 10.9362V15.9837H10.2785V10.9362C10.2785 10.2669 10.5494 9.62513 11.0313 9.15183C11.5132 8.67854 12.1666 8.41246 12.8481 8.41246C13.5296 8.41246 14.183 8.67854 14.6649 9.15183C15.1468 9.62513 15.4177 10.2669 15.4177 10.9362V15.9837H17.1308V10.9362ZM1.71308 15.9837H3.42616V7.57121H1.71308V15.9837ZM3.42616 2.52374C3.42616 2.05913 3.04268 1.68249 2.56962 1.68249C2.09657 1.68249 1.71308 2.05913 1.71308 2.52374C1.71308 2.98834 2.09657 3.36498 2.56962 3.36498C3.04268 3.36498 3.42616 2.98834 3.42616 2.52374ZM18.8439 16.8249C18.8439 17.2895 18.4604 17.6662 17.9874 17.6662H14.5612C14.0881 17.6662 13.7047 17.2895 13.7047 16.8249V10.9362C13.7047 10.7131 13.6144 10.4992 13.4537 10.3414C13.2931 10.1836 13.0753 10.0949 12.8481 10.0949C12.6209 10.0949 12.4031 10.1836 12.2425 10.3414C12.0819 10.4992 11.9916 10.7131 11.9916 10.9362V16.8249C11.9916 17.2895 11.6081 17.6662 11.135 17.6662H7.70887C7.23582 17.6662 6.85233 17.2895 6.85233 16.8249V10.9362C6.85233 9.37441 7.48364 7.87621 8.60807 6.77186C9.7325 5.66751 11.2579 5.04747 12.8481 5.04747C14.4383 5.04747 15.9637 5.66751 17.0882 6.77186C18.2126 7.87621 18.8439 9.37441 18.8439 10.9362V16.8249ZM5.13925 2.52374C5.13925 3.91756 3.98879 5.04747 2.56962 5.04747C1.15046 5.04747 0 3.91756 0 2.52374C0 1.12992 1.15046 0 2.56962 0C3.98879 0 5.13925 1.12992 5.13925 2.52374Z" fill="black"/>
</svg>
