<svg width="20" height="20" viewBox="0 0 20 20" fill="none" xmlns="http://www.w3.org/2000/svg">
<path d="M5.09091 7.66667C5.54278 7.66667 5.90909 8.0291 5.90909 8.47619V18.1905C5.90909 18.6376 5.54278 19 5.09091 19H1.81818C1.36631 19 1 18.6376 1 18.1905V8.47619C1 8.0291 1.36631 7.66667 1.81818 7.66667H5.09091ZM17.3636 12.5238C17.3636 11.4503 16.9323 10.4211 16.1651 9.66202C15.3979 8.90294 14.3577 8.47619 13.2727 8.47619C12.1878 8.47619 11.1475 8.90294 10.3803 9.66202C9.61313 10.4211 9.18182 11.4503 9.18182 12.5238V17.381H10.8182V12.5238C10.8182 11.8797 11.077 11.2622 11.5373 10.8067C11.9976 10.3513 12.6217 10.0952 13.2727 10.0952C13.9237 10.0952 14.5479 10.3513 15.0082 10.8067C15.4685 11.2622 15.7273 11.8797 15.7273 12.5238V17.381H17.3636V12.5238ZM2.63636 17.381H4.27273V9.28571H2.63636V17.381ZM4.27273 4.42857C4.27273 3.98148 3.90641 3.61905 3.45455 3.61905C3.00268 3.61905 2.63636 3.98148 2.63636 4.42857C2.63636 4.87566 3.00268 5.2381 3.45455 5.2381C3.90641 5.2381 4.27273 4.87566 4.27273 4.42857ZM19 18.1905C19 18.6376 18.6337 19 18.1818 19H14.9091C14.4572 19 14.0909 18.6376 14.0909 18.1905V12.5238C14.0909 12.3091 14.0046 12.1033 13.8512 11.9515C13.6978 11.7996 13.4897 11.7143 13.2727 11.7143C13.0557 11.7143 12.8477 11.7996 12.6942 11.9515C12.5408 12.1033 12.4545 12.3091 12.4545 12.5238V18.1905C12.4545 18.6376 12.0882 19 11.6364 19H8.36364C7.91177 19 7.54545 18.6376 7.54545 18.1905V12.5238C7.54545 11.0209 8.1485 9.57921 9.22257 8.51651C10.2966 7.4538 11.7538 6.85714 13.2727 6.85714C14.7917 6.85714 16.2488 7.4538 17.3229 8.51651C18.397 9.57921 19 11.0209 19 12.5238V18.1905ZM5.90909 4.42857C5.90909 5.76983 4.81015 6.85714 3.45455 6.85714C2.09894 6.85714 1 5.76983 1 4.42857C1 3.08731 2.09894 2 3.45455 2C4.81015 2 5.90909 3.08731 5.90909 4.42857Z" fill="black"/>
</svg>
